#!OML:ASF F:\VICON\USERDATA\INSTALL\rory3\rory3.ASF
:FULLY-SPECIFIED
:DEGREES
1820
root 0.447684 15.9218 -0.592934 0.954502 2.25165 -1.04746
lowerback 11.4695 1.42828 -0.160911
upperback -2.70761 1.90293 0.174781
thorax -9.36359 0.932465 -0.0908913
lowerneck -11.1346 -4.18278 -10.4815
upperneck 15.8165 -5.75033 10.9264
head 7.29186 -2.47393 4.76251
rclavicle 1.11218e-014 -7.95139e-016
rhumerus -19.5815 21.8761 -85.276
rradius 119.744
rwrist 23.3619
rhand 27.6173 6.54015
rfingers 7.12502
rthumb 51.5526 -13.8275
lclavicle 1.11218e-014 -7.95139e-016
lhumerus -7.41878 -32.0021 81.6304
lradius 114.59
lwrist 0.545777
lhand 7.887 34.5463
lfingers 7.12502
lthumb 33.1196 61.5212
rfemur -9.26525 12.8712 17.0764
rtibia 26.9739
rfoot -14.1278 -15.7916
rtoes -12.482
lfemur -10.3471 -13.841 -16.4137
ltibia 25.8372
lfoot -12.7841 8.9145
ltoes -12.6224
1821
root 0.451272 15.9251 -0.593766 0.954266 1.94083 -1.08009
lowerback 11.6093 1.31912 0.0254355
upperback -2.80539 1.77515 0.060518
thorax -9.54213 0.855522 -0.298364
lowerneck -10.996 -4.38173 -10.6847
upperneck 15.8888 -6.0599 11.2026
head 7.34164 -2.61587 4.85973
rclavicle -3.22482e-015 6.95746e-016
rhumerus -19.7402 21.8416 -85.542
rradius 119.761
rwrist 23.4884
rhand 27.7923 6.97864
rfingers 7.12502
rthumb 51.7116 -13.2967
lclavicle -3.22482e-015 6.95746e-016
lhumerus -7.62763 -31.9444 81.525
lradius 114.655
lwrist 0.577069
lhand 8.21013 34.7912
lfingers 7.12502
lthumb 33.4268 61.7004
rfemur -9.31726 12.9566 17.079
rtibia 26.9262
rfoot -14.0614 -15.6088
rtoes -12.7646
lfemur -10.2452 -13.7404 -16.4073
ltibia 25.774
lfoot -12.8698 9.11613
ltoes -12.5122
1822
root 0.45382 15.927 -0.595358 0.939637 1.59479 -1.21182
lowerback 11.7799 1.28816 -0.045726
upperback -2.93868 1.73928 0.227117
thorax -9.79631 0.846857 -0.0790734
lowerneck -10.6342 -4.643 -11.0718
upperneck 15.8238 -6.39115 11.247
head 7.31033 -2.80606 4.90722
rclavicle 5.82474e-015 -3.47873e-015
rhumerus -19.9829 22.0408 -85.4774
rradius 119.766
rwrist 23.3525
rhand 27.6606 6.95991
rfingers 7.12502
rthumb 51.592 -13.385
lclavicle 5.82474e-015 -3.47873e-015
lhumerus -8.0128 -31.7852 81.8937
lradius 114.708
lwrist 0.570047
lhand 8.24862 34.8378
lfingers 7.12502
lthumb 33.4634 61.7391
rfemur -9.35798 13.1479 17.2072
rtibia 26.8569
rfoot -13.9518 -15.5146
rtoes -12.8636
lfemur -10.1442 -13.5458 -16.2794
ltibia 25.7315
lfoot -12.9309 9.24144
ltoes -12.3573
1823
root 0.45654 15.9288 -0.596764 0.962474 1.25085 -1.30688
lowerback 11.9072 1.26236 -0.242977
upperback -3.05826 1.69613 0.450367
thorax -10.0162 0.845334 0.275862
lowerneck -10.3954 -4.97258 -11.5797
upperneck 15.7937 -6.78188 11.25
head 7.3246 -3.03131 4.95343
rclavicle 5.81659e-015 2.68359e-015
rhumerus -20.1395 22.3123 -85.323
rradius 119.724
rwrist 23.2461
rhand 27.396 6.84188
rfingers 7.12502
rthumb 51.3514 -13.6413
lclavicle 5.81659e-015 2.68359e-015
lhumerus -8.4017 -31.5533 82.3228
lradius 114.764
lwrist 0.576872
lhand 8.19672 34.7016
lfingers 7.12502
lthumb 33.414 61.6135
rfemur -9.44038 13.4104 17.2845
rtibia 26.8049
rfoot -13.9078 -15.448
rtoes -12.8279
lfemur -10.0867 -13.3414 -16.1818
ltibia 25.6836
lfoot -12.989 9.36373
ltoes -12.2249
1824
root 0.461256 15.9311 -0.597696 0.995695 1.00396 -1.27411
lowerback 12.0614 1.2003 -0.343647
upperback -3.17712 1.6011 0.484573
thorax -10.2415 0.806951 0.384298
lowerneck -10.2433 -5.3769 -12.0732
upperneck 15.7993 -7.3158 11.469
head 7.3939 -3.30398 5.05336
rclavicle 1.98061e-014 3.32964e-015
rhumerus -20.2445 22.4329 -85.3324
rradius 119.7
rwrist 23.2906
rhand 27.3698 6.7503
rfingers 7.12502
rthumb 51.3275 -13.7465
lclavicle 1.98061e-014 3.32964e-015
lhumerus -8.64213 -31.4584 82.5
lradius 114.823
lwrist 0.691104
lhand 8.08762 34.828
lfingers 7.12502
lthumb 33.3103 61.7623
rfemur -9.50266 13.5316 17.2049
rtibia 26.7656
rfoot -13.8646 -15.301
rtoes -12.6233
lfemur -10.0327 -13.2148 -16.2422
ltibia 25.6249
lfoot -13.0103 9.46674
ltoes -12.3521
1825
root 0.464718 15.9314 -0.598208 1.00251 0.781273 -1.17706
lowerback 11.7974 1.12916 -0.444214
upperback -3.00319 1.48343 0.424225
thorax -9.89342 0.754604 0.407334
lowerneck -10.1262 -5.87592 -12.4793
upperneck 15.493 -7.99331 11.8217
head 7.39392 -3.62925 5.16107
rclavicle 1.43812e-014 -2.08724e-015
rhumerus -19.7534 22.4391 -85.2688
rradius 119.574
rwrist 23.3454
rhand 27.4826 6.73639
rfingers 7.12502
rthumb 51.4301 -13.7018
lclavicle 1.43812e-014 -2.08724e-015
lhumerus -8.27833 -31.3441 82.2504
lradius 114.839
lwrist 0.769471
lhand 8.00865 34.9774
lfingers 7.12502
lthumb 33.2353 61.9277
rfemur -9.53323 13.6375 17.0672
rtibia 26.7338
rfoot -13.813 -15.1904
rtoes -12.4646
lfemur -9.94524 -13.1325 -16.3779
ltibia 25.5653
lfoot -13.0425 9.57702
ltoes -12.1834
1826
root 0.466338 15.932 -0.598594 0.994638 0.519146 -1.0762
lowerback 11.6979 1.06064 -0.593127
upperback -2.94011 1.36309 0.365666
thorax -9.7661 0.703506 0.455142
lowerneck -9.72489 -6.45957 -13.039
upperneck 15.0964 -8.80841 12.2812
head 7.35075 -4.03162 5.3179
rclavicle 2.3876e-015 -1.61016e-014
rhumerus -19.4945 22.5174 -85.3362
rradius 119.448
rwrist 23.2661
rhand 27.3199 6.75621
rfingers 7.12502
rthumb 51.2821 -13.7664
lclavicle 2.3876e-015 -1.61016e-014
lhumerus -8.1807 -31.1942 82.052
lradius 114.85
lwrist 0.852072
lhand 8.08222 34.8336
lfingers 7.12502
lthumb 33.3052 61.7689
rfemur -9.56232 13.822 16.946
rtibia 26.7162
rfoot -13.7538 -15.1282
rtoes -12.4671
lfemur -9.83082 -13.0472 -16.5158
ltibia 25.4956
lfoot -13.082 9.75361
ltoes -12.1393
1827
root 0.467776 15.9317 -0.599048 1.00347 0.268916 -1.10805
lowerback 11.6681 0.979016 -0.60802
upperback -2.92198 1.25017 0.350794
thorax -9.72689 0.649505 0.470814
lowerneck -9.27208 -7.16909 -13.7557
upperneck 14.6681 -9.7891 12.7867
head 7.33214 -4.52165 5.49568
rclavicle -1.09082e-014 -4.47266e-015
rhumerus -19.3974 22.766 -85.4626
rradius 119.354
rwrist 22.9753
rhand 26.7286 6.4128
rfingers 7.12502
rthumb 50.7433 -14.4107
lclavicle -1.09082e-014 -4.47266e-015
lhumerus -8.14347 -31.0237 81.8444
lradius 114.893
lwrist 1.03708
lhand 8.09803 34.8487
lfingers 7.12502
lthumb 33.3202 61.7808
rfemur -9.59915 13.9771 16.9645
rtibia 26.6816
rfoot -13.7182 -15.0348
rtoes -12.4964
lfemur -9.75361 -12.9727 -16.4972
ltibia 25.4317
lfoot -13.1254 9.92855
ltoes -12.2339
1828
root 0.467194 15.9315 -0.599327 0.992446 0.0584633 -1.10666
lowerback 11.6466 0.870214 -0.725956
upperback -2.88266 1.08591 0.345801
thorax -9.6708 0.577053 0.565328
lowerneck -8.73813 -7.94095 -14.3355
upperneck 14.1073 -10.8669 13.2116
head 7.27177 -5.06135 5.60933
rclavicle -2.00959e-014 -1.32192e-014
rhumerus -19.1931 22.942 -85.5336
rradius 119.299
rwrist 22.7637
rhand 26.6459 6.39185
rfingers 7.12502
rthumb 50.6679 -14.473
lclavicle -2.00959e-014 -1.32192e-014
lhumerus -8.06318 -30.7557 81.6054
lradius 114.934
lwrist 1.13389
lhand 8.07771 34.9578
lfingers 7.12502
lthumb 33.3009 61.894
rfemur -9.59323 14.1427 16.9632
rtibia 26.6265
rfoot -13.6718 -14.9892
rtoes -12.5292
lfemur -9.65944 -12.8908 -16.512
ltibia 25.3801
lfoot -13.1809 10.0765
ltoes -12.3953
1829
root 0.4653 15.9338 -0.599054 0.976314 -0.112335 -1.13876
lowerback 11.6603 0.732792 -0.83077
upperback -2.86321 0.88607 0.349724
thorax -9.65571 0.487035 0.668347
lowerneck -8.02815 -8.7867 -14.8795
upperneck 13.4105 -12.0731 13.6689
head 7.16818 -5.66791 5.71396
rclavicle -9.72259e-015 -5.76476e-015
rhumerus -18.9766 22.96 -85.5915
rradius 119.342
rwrist 22.8818
rhand 27.2089 6.81978
rfingers 7.12502
rthumb 51.181 -13.76
lclavicle -9.72259e-015 -5.76476e-015
lhumerus -8.08487 -30.4358 81.4091
lradius 114.998
lwrist 1.12613
lhand 8.18259 34.7722
lfingers 7.12502
lthumb 33.4006 61.687
rfemur -9.55687 14.3409 17.0141
rtibia 26.5502
rfoot -13.5975 -15.0107
rtoes -12.3644
lfemur -9.58852 -12.7146 -16.468
ltibia 25.36
lfoot -13.2402 10.037
ltoes -12.2465
